<?xml version="1.0" encoding="UTF-8"?>
<!DOCTYPE svg PUBLIC "-//W3C//DTD SVG 1.1//EN" "http://www.w3.org/Graphics/SVG/1.1/DTD/svg11.dtd">
<svg version="1.1" xmlns="http://www.w3.org/2000/svg" xmlns:xlink="http://www.w3.org/1999/xlink" x="0" y="0" width="20.443" height="18" viewBox="0, 0, 20.443, 18">
  <g id="Layer_2">
    <path d="M4.431,1.212 C6.775,2.971 9.296,6.539 10.222,8.453 C11.147,6.539 13.668,2.971 16.012,1.212 C17.703,-0.058 20.443,-1.04 20.443,2.086 C20.443,2.71 20.085,7.33 19.875,8.08 C19.146,10.688 16.487,11.353 14.121,10.95 C18.256,11.654 19.308,13.985 17.036,16.316 C12.722,20.742 10.836,15.205 10.352,13.786 C10.264,13.526 10.222,13.404 10.222,13.508 C10.221,13.404 10.179,13.526 10.091,13.786 C9.607,15.205 7.721,20.742 3.407,16.316 C1.135,13.985 2.187,11.654 6.322,10.95 C3.956,11.353 1.297,10.688 0.568,8.08 C0.358,7.33 -0,2.71 -0,2.086 C-0,-1.04 2.74,-0.058 4.431,1.212 z" fill="#FFFFFF"/>
  </g>
</svg>
